<svg width="120" height="120" viewBox="0 0 120 120" fill="none" xmlns="http://www.w3.org/2000/svg">
  <!-- Dark green background circle -->
  <circle cx="60" cy="60" r="60" fill="#172a22"/>
  <!-- Light beige outer circle border -->
  <circle cx="60" cy="60" r="58" stroke="#d0c39b" stroke-width="2" fill="none"/>
  <!-- Celtic Tree of Life Design -->
  <g fill="#d0c39b">
    <!-- Central Trunk -->
    <rect x="58" y="45" width="4" height="30" rx="2"/>
    <!-- Upper Branches -->
    <path d="M60 45 Q50 40 45 35 Q40 30 35 25 Q30 20 25 15 Q20 10 15 8 Q10 6 5 8 Q0 10 3 15 Q5 20 10 25 Q15 30 20 35 Q25 40 30 45 Q35 50 40 55 Q45 60 50 65 Q55 70 60 65 Q65 70 70 65 Q75 60 80 55 Q85 50 90 45 Q95 40 100 35 Q105 30 110 25 Q115 20 117 15 Q120 10 115 8 Q110 6 105 8 Q100 10 95 15 Q90 20 85 25 Q80 30 75 35 Q70 40 65 45 Q60 45 60 45"/>
    <!-- Lower Roots -->
    <path d="M60 75 Q50 80 45 85 Q40 90 35 95 Q30 100 25 105 Q20 110 15 112 Q10 115 5 112 Q0 110 3 105 Q5 100 10 95 Q15 90 20 85 Q25 80 30 75 Q35 70 40 65 Q45 60 50 55 Q55 50 60 55 Q65 50 70 55 Q75 60 80 65 Q85 70 90 75 Q95 80 100 85 Q105 90 110 95 Q115 100 117 105 Q120 110 115 112 Q110 115 105 112 Q100 110 95 105 Q90 100 85 95 Q80 90 75 85 Q70 80 65 75 Q60 75 60 75"/>
    <!-- Leaves -->
    <ellipse cx="20" cy="20" rx="2" ry="4" transform="rotate(-30 20 20)"/>
    <ellipse cx="100" cy="20" rx="2" ry="4" transform="rotate(30 100 20)"/>
    <ellipse cx="15" cy="100" rx="2" ry="4" transform="rotate(30 15 100)"/>
    <ellipse cx="105" cy="100" rx="2" ry="4" transform="rotate(-30 105 100)"/>
  </g>
</svg>
