<svg width="120" height="120" viewBox="0 0 120 120" fill="none" xmlns="http://www.w3.org/2000/svg">
  <!-- Dark green background circle -->
  <circle cx="60" cy="60" r="60" fill="#172a22"/>
  <!-- Light beige outer circle border -->
  <circle cx="60" cy="60" r="58" stroke="#d0c39b" stroke-width="2" fill="none"/>
  <!-- Celtic Tree of Life Design -->
  <g fill="#d0c39b">
    <!-- Central Trunk -->
    <rect x="58" y="40" width="4" height="40" rx="2"/>
    <!-- Upper Branches - Celtic knotwork style -->
    <path d="M60 40 Q50 35 45 30 Q40 25 35 20 Q30 15 25 10 Q20 5 15 3 Q10 1 5 3 Q0 5 2 10 Q4 15 9 20 Q14 25 19 30 Q24 35 29 40 Q34 45 39 50 Q44 55 49 60 Q54 65 59 60 Q64 65 69 60 Q74 55 79 50 Q84 45 89 40 Q94 35 99 30 Q104 25 109 20 Q114 15 116 10 Q118 5 115 3 Q110 1 105 3 Q100 5 95 10 Q90 15 85 20 Q80 25 75 30 Q70 35 65 40 Q60 40 60 40"/>
    <!-- Lower Roots - Celtic knotwork style -->
    <path d="M60 80 Q50 85 45 90 Q40 95 35 100 Q30 105 25 110 Q20 115 15 117 Q10 119 5 117 Q0 115 2 110 Q4 105 9 100 Q14 95 19 90 Q24 85 29 80 Q34 75 39 70 Q44 65 49 60 Q54 55 59 60 Q64 55 69 60 Q74 65 79 70 Q84 75 89 80 Q94 85 99 90 Q104 95 109 100 Q114 105 116 110 Q118 115 115 117 Q110 119 105 117 Q100 115 95 110 Q90 105 85 100 Q80 95 75 90 Q70 85 65 80 Q60 80 60 80"/>
    <!-- Side connecting branches -->
    <path d="M60 50 Q55 45 50 40 Q45 35 40 30 Q35 25 30 20 Q25 15 20 10 Q15 5 10 2 Q5 -1 0 2 Q-5 5 -2 10 Q1 15 6 20 Q11 25 16 30 Q21 35 26 40 Q31 45 36 50 Q41 55 46 60 Q51 65 56 60 Q61 65 66 60 Q71 55 76 50 Q81 45 86 40 Q91 35 96 30 Q101 25 106 20 Q111 15 114 10 Q117 5 114 2 Q109 -1 104 2 Q99 5 94 10 Q89 15 84 20 Q79 25 74 30 Q69 35 64 40 Q59 45 60 50"/>
    <!-- Leaves -->
    <ellipse cx="20" cy="20" rx="2" ry="4" transform="rotate(-30 20 20)"/>
    <ellipse cx="100" cy="20" rx="2" ry="4" transform="rotate(30 100 20)"/>
    <ellipse cx="15" cy="100" rx="2" ry="4" transform="rotate(30 15 100)"/>
    <ellipse cx="105" cy="100" rx="2" ry="4" transform="rotate(-30 105 100)"/>
  </g>
</svg>
